<svg xmlns="http://www.w3.org/2000/svg" version="1.1" xmlns:xlink="http://www.w3.org/1999/xlink" xmlns:svgjs="http://svgjs.com/svgjs" width="1920" height="1080" preserveAspectRatio="none" viewBox="0 0 1920 1080"><g mask="url(&quot;#SvgjsMask1056&quot;)" fill="none"><rect width="1920" height="1080" x="0" y="0" fill="rgba(255, 255, 255, 1)"></rect><path d="M277.18723608258085 307.1971503747127L203.34110275242236 133.22656246192275 103.21664816979091 381.0432837048712z" fill="rgba(174, 194, 215, 0.4)" class="triangle-float3"></path><path d="M811.813,256.117C861.454,256.353,917.832,253.596,943.212,210.933C968.943,167.679,946.992,115.137,921.495,71.745C896.443,29.11,861.205,-10.275,811.813,-12.688C758.671,-15.284,708.592,14.039,681.856,60.039C654.988,106.265,653.02,165.128,682.558,209.695C709.665,250.594,762.748,255.884,811.813,256.117" fill="rgba(174, 194, 215, 0.4)" class="triangle-float2"></path><path d="M437.0820001489702 654.6247845362567L562.8492925948359 436.7894440896439 345.01395214822315 311.0221516437782 219.24665970235745 528.857492090391z" fill="rgba(174, 194, 215, 0.4)" class="triangle-float3"></path><path d="M1506.014,371.83C1580.241,373.751,1645.355,328.104,1684.177,264.81C1725.078,198.127,1741.752,116.104,1705.331,46.873C1666.57,-26.807,1589.241,-75.94,1506.014,-73.855C1425.856,-71.847,1358.779,-15.45,1323.277,56.445C1291.558,120.68,1307.226,193.996,1343.142,255.983C1378.941,317.768,1434.631,369.982,1506.014,371.83" fill="rgba(174, 194, 215, 0.4)" class="triangle-float3"></path><path d="M770.4035361340177 302.21053709260786L560.5853076575913 534.7911540758382 827.3857817809956 596.3868969281511z" fill="rgba(174, 194, 215, 0.4)" class="triangle-float3"></path><path d="M319.8530256756068-7.823907396193206L183.31338264423295 148.94498924249712 361.0734257022116 186.72905279721616z" fill="rgba(174, 194, 215, 0.4)" class="triangle-float3"></path><path d="M823.412,260.897C891.873,262.824,967.726,248.167,1000.788,188.188C1033.143,129.492,1001.781,60.064,965.003,4.033C932.518,-45.458,882.543,-79.177,823.412,-82.044C758.462,-85.193,690.006,-66.295,655.857,-10.958C620.257,46.731,626.956,120.961,662.524,178.669C696.394,233.622,758.886,259.081,823.412,260.897" fill="rgba(174, 194, 215, 0.4)" class="triangle-float3"></path><path d="M1007.5291549863214 1037.2339953387718L1227.2307572295897 1179.9098840732092 1150.2050437207588 817.5323930955035z" fill="rgba(174, 194, 215, 0.4)" class="triangle-float2"></path><path d="M1247.3856081480901 218.04668647438427L1411.442898980381 127.10824520922607 1320.5044577152228-36.949045623064876 1156.447166882932 53.989395642093314z" fill="rgba(174, 194, 215, 0.4)" class="triangle-float3"></path></g><defs><mask id="SvgjsMask1056"><rect width="1920" height="1080" fill="#ffffff"></rect></mask><style>
            @keyframes float1 {
                0%{transform: translate(0, 0)}
                50%{transform: translate(-10px, 0)}
                100%{transform: translate(0, 0)}
            }

            .triangle-float1 {
                animation: float1 5s infinite;
            }

            @keyframes float2 {
                0%{transform: translate(0, 0)}
                50%{transform: translate(-5px, -5px)}
                100%{transform: translate(0, 0)}
            }

            .triangle-float2 {
                animation: float2 4s infinite;
            }

            @keyframes float3 {
                0%{transform: translate(0, 0)}
                50%{transform: translate(0, -10px)}
                100%{transform: translate(0, 0)}
            }

            .triangle-float3 {
                animation: float3 6s infinite;
            }
        </style></defs></svg>